<?xml version="1.0" encoding="utf-8"?>
<!-- Generator: Adobe Illustrator 23.0.4, SVG Export Plug-In . SVG Version: 6.00 Build 0)  -->
<svg version="1.1" id="Calque_1" xmlns="http://www.w3.org/2000/svg" xmlns:xlink="http://www.w3.org/1999/xlink" x="0px" y="0px"
	 viewBox="0 0 1568.48 150" style="enable-background:new 0 0 1568.48 150;" xml:space="preserve">
<style type="text/css">
	.st0{fill:#C8C9CA;}
	.st1{fill:#B4B5B6;}
	.st2{fill:#DCDDDE;}
	.st3{fill:#DCDDDE;stroke:#B4B5B6;stroke-miterlimit:10;}
</style>
<path class="st0" d="M139.56,135.2l16.76,58.66c0,0,98.29,15.52,233.18,19.01v-6.27h15.89h74.7h15.62v6.98
	c94.58,0,189.93,0,244.98,0v-17.83h94.58v17.83c55.04,0,150.4,0,244.98,0v-6.98h15.62h74.7h15.89v6.27
	c134.89-3.48,233.18-19.01,233.18-19.01l16.85-58.66c-164.23,19.06-381.14,34.88-648.46,34.88S303.8,154.26,139.56,135.2z"/>
<path class="st1" d="M932.95,149.87v7.88H787.98H643v-7.88v-19.13c-241.88,0-456.3-27.32-559.37-43l11.35,42.05
	c13.68,1.73,27.77,3.45,42.28,5.14c0.77,0.09,1.53,0.18,2.3,0.27c164.23,19.06,381.09,34.88,648.41,34.88s484.18-15.83,648.41-34.88
	c0.67-0.08,1.34-0.16,2.01-0.23c14.61-1.7,28.8-3.43,42.58-5.18l11.34-42.05c-103.07,15.68-317.49,43-559.37,43V149.87z"/>
<path class="st1" d="M405.01,276.81"/>
<path class="st1" d="M480.2,276.81"/>
<path class="st1" d="M1170.95,322.88v64.35c19.38,0,35.26,0,45.67,0c115.55,0,197.76-10.86,197.76-10.86v-63.77
	c0,0-82.21,10.29-197.76,10.29C1206.2,322.88,1190.33,322.88,1170.95,322.88z"/>
<path class="st1" d="M359.34,322.88c-115.55,0-197.76-10.29-197.76-10.29v63.77c0,0,82.21,10.86,197.76,10.86
	c10.41,0,26.29,0,45.67,0v-64.35C385.62,322.88,369.75,322.88,359.34,322.88z"/>
<path class="st1" d="M835.27,322.88v13.95h-94.58v-13.95c-62.02,0-172.1,0-260.48,0v64.35c130.24,0,307.77,0,307.77,0
	s177.53,0,307.77,0v-64.35C1007.37,322.88,897.28,322.88,835.27,322.88z"/>
<path class="st2" d="M509.41,311.25H480.2v11.63c88.38,0,198.46,0,260.48,0v-11.63C685.64,311.25,591.68,311.25,509.41,311.25z"/>
<path class="st2" d="M1170.95,322.88c19.38,0,35.26,0,45.67,0c115.55,0,197.73-10.4,197.73-10.4l10.88-1.42v-12.02l-10.88,1.52
	c0,0-2.08,0.26-5.9,0.69c-2.29,0.26-5.28,0.58-8.84,0.95c-2.97,0.31-6.38,0.65-10.18,1.01c-2.28,0.22-4.71,0.44-7.28,0.67
	c-3.42,0.31-7.09,0.63-11,0.95c-1.95,0.16-3.97,0.32-6.04,0.49c-1.04,0.08-2.09,0.26-3.15,0.34c-35.11,2.71-85.77,5.59-145.35,5.59
	c-4.56,0-10.19,0-16.73,0h-28.94V322.88z"/>
<path class="st2" d="M835.27,311.25v11.63c62.02,0,172.1,0,260.48,0v-11.63h-29.21C984.27,311.25,890.31,311.25,835.27,311.25z"/>
<path class="st2" d="M405.01,322.88v-11.63h-28.94c-6.54,0-12.17,0-16.73,0c-115.55,0-197.73-10.6-197.73-10.6l-10.88-1.61v12.02
	l10.88,1.42c0,0,82.18,10.4,197.73,10.4C369.75,322.88,385.62,322.88,405.01,322.88z"/>
<polygon class="st2" points="495.71,236.83 495.71,213.55 495.71,206.6 480.09,206.6 405.39,206.6 389.5,206.6 389.5,212.86 
	389.5,236.83 405.39,236.83 480.09,236.83 "/>
<polygon class="st2" points="1170.56,206.6 1095.86,206.6 1080.24,206.6 1080.24,213.55 1080.24,236.83 1095.86,236.83 
	1170.56,236.83 1186.45,236.83 1186.45,212.86 1186.45,206.6 "/>
<path class="st2" d="M1549.82,69.13c0,0-277.32,53.74-616.88,53.74v7.88c241.88,0,456.3-27.32,559.37-43
	c41.49-6.31,57.52-10.74,57.52-10.74l20.95-77.67c-0.76,0.22-1.53,0.44-2.31,0.67L1549.82,69.13z"/>
<path class="st2" d="M643,122.87c-339.56,0-624.34-53.74-624.34-53.74L0.02,0C-0.76-0.22-1.54-0.45-2.3-0.67L18.65,77
	c0,0,23.5,4.43,64.99,10.74c103.07,15.68,317.49,43,559.37,43V122.87z"/>
<polygon class="st2" points="643,150 643,157.76 787.98,157.76 932.95,157.76 932.95,150 787.98,150 "/>
<path class="st0" d="M1549.82,69.13L1568.48,0c-95.07,27.44-354.72,91.35-780.51,91.35S95.07,27.44,0,0l18.67,69.13
	c0,0,284.78,53.74,624.34,53.74v7.88V150h144.97h144.97v-19.26v-7.88"/>
<path class="st0" d="M932.95,122.87c339.56,0,616.88-53.74,616.88-53.74"/>
<path class="st2" d="M1621.75-60.09c0,0-282.32,111.21-833.77,111.21S-53.25-60.09-53.25-60.09l14.13,47.81
	c0,0,12.37,4.5,36.83,11.61C-1.55-0.45-0.78-0.22,0,0c95.07,27.44,362.18,91.35,787.97,91.35S1473.42,27.44,1568.49,0
	c0.78-0.22,1.55-0.45,2.3-0.67c24.46-7.12,36.83-11.61,36.83-11.61L1621.75-60.09z"/>
<polygon class="st3" points="740.69,323.09 740.69,336.84 835.27,336.84 835.27,323.09 835.27,311.07 835.27,213.55 835.27,195.74 
	740.69,195.74 740.69,213.55 740.69,311.07 "/>
<polygon class="st0" points="754.69,306.2 754.69,315.84 821,315.84 821,306.2 821,297.77 821,229.4 821,216.92 754.69,216.92 
	754.69,229.4 754.69,297.77 "/>
<text transform="matrix(1 0 0 1 765.7015 282.0927)" class="st1" style="font-family:'KozGoPr6N-Regular-83pv-RKSJ-H'; font-size:46.2939px;">学</text>
<g>
	<g>
		<path class="st2" d="M511.7,417.12c11.18,0.05,16.77,0.08,27.94,0.13c9.09,0.04,15.91,2.96,20.46,9.03
			c5.21,6.95,7.26,18.4,6.82,26.78c0,24.34,0.01,48.69,0.01,73.03c0,11.69-2.27,19.94-6.82,24.45c-4.55,4.52-11.37,5.1-20.47,2.04
			c-9.32-3.14-18.64-6.28-27.95-9.42C511.7,501.15,511.7,459.13,511.7,417.12z M539.32,533.16c2.99,0.87,5.3,0.5,6.9-1.15
			c1.61-1.64,2.41-4.85,2.41-9.59c0-23.98,0-47.95-0.01-71.93c0-4.74-0.81-8.23-2.41-10.42c-1.61-2.19-3.91-3.35-6.9-3.5
			c-3.73-0.19-5.59-0.29-9.32-0.49c0,31.46,0,62.92,0,94.38C533.73,531.54,535.59,532.08,539.32,533.16z"/>
		<path class="st2" d="M585.08,560.15c-5.48-9.11-6.42-19.4-7.16-29.78c0-25.94-0.01-51.89-0.01-77.83
			c-0.46-8.62,1.87-20.23,7.15-27.34c4.77-6.43,11.64-9.88,20.63-9.88c8.98,0,15.98,3.52,20.63,10.79
			c5.77,9.01,7.28,20.46,7.16,31.08c0.01,29.18,0.02,58.36,0.02,87.54c-0.63,9.59-0.69,20.81-7.15,28.63
			c-4.67,5.66-11.65,6.81-20.63,3.74C596.73,574.02,589.88,568.14,585.08,560.15z M615.19,541.6c-0.01-29.18-0.01-58.37-0.02-87.55
			c0-10.54-3.16-15.96-9.49-16.26c-6.32-0.3-9.48,4.61-9.48,14.74c0.01,28.04,0.01,56.07,0.02,84.11c0,10.13,3.16,16.12,9.49,17.98
			C612.03,556.48,615.19,552.14,615.19,541.6z"/>
		<path class="st2" d="M640.99,586.72c0-9.66,0-14.48-0.01-24.14c1.77,1.16,3.77,2.06,5.99,2.71c3.66,1.07,6.38,0.51,8.15-1.72
			c1.77-2.23,2.66-6.19,2.66-11.84c-0.01-44.64-0.03-89.28-0.04-133.93c7.32,0.03,10.98,0.05,18.3,0.09
			c0.01,45.94,0.03,91.88,0.04,137.82c0.16,10.23-0.49,22.56-6.56,30.94c-4.14,5.7-11.06,6.96-20.05,3.91
			C646.15,589.44,643.32,588.15,640.99,586.72z"/>
		<path class="st2" d="M695.07,595.33c-5.04-11.17-7.26-24.1-7.17-36.57c-0.01-32.35-0.02-64.69-0.03-97.04
			c-0.14-11.59,1.31-24.02,7.14-34.12c4.65-8.05,11.64-12.29,20.62-12.29c8.98,0,16,4.34,20.63,13.19
			c6.12,11.69,6.66,24.82,7.17,37.86c0.01,35.58,0.03,71.16,0.04,106.74c-0.47,12.12-0.57,25.01-7.14,35.42
			c-4.56,7.22-11.75,8.99-20.63,6.14C707.3,611.96,698.62,603.2,695.07,595.33z M725.18,570.35c-0.01-35.83-0.03-71.66-0.04-107.49
			c0-12.94-3.17-19.56-9.49-19.86c-6.32-0.3-9.48,5.81-9.48,18.34c0.01,34.68,0.02,69.36,0.04,104.05c0,12.53,3.17,19.72,9.49,21.58
			C722.02,588.83,725.18,583.29,725.18,570.35z"/>
		<path class="st2" d="M782.34,418.4c7.32,0.03,10.98,0.02,18.3-0.02c0.01,29.17,0.02,58.33,0.03,87.5
			c7.85-1.11,11.78-1.66,19.63-2.76c-0.01-28.28-0.02-56.55-0.03-84.83c7.32-0.03,10.98-0.05,18.3-0.09
			c0.02,67.41,0.05,134.83,0.07,202.24c-7.32,2.48-10.97,3.72-18.29,6.2c-0.01-31.25-0.02-62.51-0.03-93.76
			c-7.85,1.48-11.78,2.22-19.63,3.7c0.01,32.24,0.03,64.47,0.04,96.71c-7.32,2.48-10.97,3.53-18.3,1.07
			C782.4,562.38,782.37,490.39,782.34,418.4z"/>
		<path class="st2" d="M852.21,418.14c16.64-0.08,33.27-0.16,49.91-0.24c0,10.34,0,15.52,0.01,25.86
			c-10.54,0.55-21.07,1.11-31.61,1.66c0.01,16.88,0.01,33.75,0.02,50.63c10.05-1.41,15.07-2.12,25.12-3.54
			c0,10.47,0,15.7,0.01,26.17c-10.05,1.89-15.07,2.84-25.11,4.74c0.01,19.61,0.01,39.23,0.02,58.84c10.53-3.07,21.07-6.13,31.6-9.2
			c0,10.34,0,15.51,0.01,25.86c-16.63,5.64-33.26,11.27-49.89,16.91C852.25,549.93,852.23,484.04,852.21,418.14z"/>
		<path class="st2" d="M912.6,417.85c10.78-0.05,16.17-0.08,26.95-0.13c9.09-0.04,15.92,3.41,20.46,10.06
			c5.88,8.6,6.19,19.25,6.83,29.2c0,6.29,0,9.43,0,15.71c0.11,10.48-1.46,21.53-6.81,30.62c-4.46,7.58-11.36,12.47-20.45,14.31
			c-3.46,0.7-5.19,1.05-8.65,1.75c0.01,23.26,0.01,46.52,0.02,69.78c-7.32,2.48-10.98,3.72-18.29,6.2
			C912.62,536.19,912.61,477.02,912.6,417.85z M939.56,493.55c2.99-0.46,5.24-2.01,6.74-4.61c1.5-2.6,2.24-6.72,2.24-12.39
			c0-7.85,0-11.78,0-19.63c0-5.67-0.75-9.64-2.25-11.92c-1.5-2.28-3.74-3.37-6.74-3.21c-3.46,0.18-5.19,0.27-8.65,0.45
			c0,17.55,0.01,35.1,0.01,52.64C934.37,494.36,936.1,494.09,939.56,493.55z"/>
		<path class="st2" d="M976.8,417.54c7.32-0.03,10.98-0.05,18.3-0.09c0.01,49.98,0.01,99.97,0.02,149.95
			c-7.32,2.48-10.98,3.72-18.29,6.2C976.82,521.59,976.81,469.57,976.8,417.54z"/>
		<path class="st2" d="M1022.88,417.32c9.91-0.05,14.87-0.07,24.78-0.12c6.06,42.03,12.35,84.02,18.96,125.96
			c-7.32,2.48-10.97,3.72-18.29,6.2c-1.33-10.05-2-15.11-3.33-25.34c0,0.15,0,0.23,0,0.38c-8.31,2.27-12.47,3.41-20.79,5.69
			c-1.12,9.52-2.22,19.05-3.32,28.57c-6.78,2.3-10.18,3.45-16.96,5.75C1010.01,515.36,1016.31,466.32,1022.88,417.32z
			 M1042.84,506.82c-2.76-21.9-5.48-43.81-8.15-65.72c-0.13,0.01-0.2,0.01-0.33,0.02c-2.7,23.15-5.36,46.3-7.98,69.46
			C1032.96,509.07,1036.26,508.32,1042.84,506.82z"/>
	</g>
</g>
<polygon class="st0" points="1170.95,508.72 1170.95,386.87 1170.95,323.09 1170.95,311.07 1170.95,301.15 1170.95,287.72 
	1170.95,276.81 1170.95,236.83 1095.75,236.83 1095.75,276.81 1095.75,287.72 1095.75,301.15 1095.75,311.07 1095.75,323.09 
	1095.75,386.87 1095.75,533.06 "/>
<polygon class="st0" points="480.2,533.05 480.2,386.87 480.2,323.09 480.2,311.07 480.2,301.15 480.2,287.72 480.2,276.81 
	480.2,236.83 405.01,236.83 405.01,276.81 405.01,287.72 405.01,301.15 405.01,311.07 405.01,323.09 405.01,386.87 405.01,508.7 "/>
</svg>
