<?xml version="1.0" encoding="utf-8"?>
<!-- Generator: Adobe Illustrator 23.0.4, SVG Export Plug-In . SVG Version: 6.00 Build 0)  -->
<svg version="1.1" id="Calque_1" xmlns="http://www.w3.org/2000/svg" xmlns:xlink="http://www.w3.org/1999/xlink" x="0px" y="0px"
	 viewBox="0 0 1673 696" style="enable-background:new 0 0 1673 696;" xml:space="preserve">
<style type="text/css">
	.st0{fill:#C8C9CA;}
	.st1{fill:#B4B5B6;}
	.st2{fill:#DCDDDE;}
	.st3{fill:#DCDDDE;stroke:#B4B5B6;stroke-miterlimit:10;}
	.st4{font-family:'KozGoPr6N-Regular-83pv-RKSJ-H';}
	.st5{font-size:46.2939px;}
</style>
<path class="st0" d="M190.57,195.5l16.76,58.66c0,0,98.29,15.52,233.18,19.01v-6.27h15.89h74.7h15.62v6.98
	c94.58,0,189.93,0,244.98,0v-17.83h94.58v17.83c55.04,0,150.4,0,244.98,0v-6.98h15.62h74.7h15.89v6.27
	c134.89-3.48,233.18-19.01,233.18-19.01l16.85-58.66c-164.23,19.06-381.14,34.88-648.46,34.88S354.8,214.56,190.57,195.5z"/>
<path class="st1" d="M983.95,210.17v7.88H838.98H694.01v-7.88v-19.13c-241.88,0-456.3-27.32-559.37-43l11.35,42.05
	c13.68,1.73,27.77,3.45,42.28,5.14c0.77,0.09,1.53,0.18,2.3,0.27c164.23,19.06,381.09,34.88,648.41,34.88s484.18-15.83,648.41-34.88
	c0.67-0.08,1.34-0.16,2.01-0.23c14.61-1.7,28.8-3.43,42.58-5.18l11.34-42.05c-103.07,15.68-317.49,43-559.37,43V210.17z"/>
<path class="st1" d="M456.01,337.11"/>
<path class="st1" d="M531.21,337.11"/>
<path class="st1" d="M1221.95,383.18v64.35c19.38,0,35.26,0,45.67,0c115.55,0,197.76-10.86,197.76-10.86v-63.77
	c0,0-82.21,10.29-197.76,10.29C1257.21,383.18,1241.33,383.18,1221.95,383.18z"/>
<path class="st1" d="M410.34,383.18c-115.55,0-197.76-10.29-197.76-10.29v63.77c0,0,82.21,10.86,197.76,10.86
	c10.41,0,26.29,0,45.67,0v-64.35C436.63,383.18,420.75,383.18,410.34,383.18z"/>
<path class="st1" d="M886.27,383.18v13.95h-94.58v-13.95c-62.02,0-172.1,0-260.48,0v64.35c130.24,0,307.77,0,307.77,0
	s177.53,0,307.77,0v-64.35C1058.37,383.18,948.29,383.18,886.27,383.18z"/>
<path class="st2" d="M560.42,371.55h-29.21v11.63c88.38,0,198.46,0,260.48,0v-11.63C736.65,371.55,642.68,371.55,560.42,371.55z"/>
<path class="st2" d="M1221.95,383.18c19.38,0,35.26,0,45.67,0c115.55,0,197.73-10.4,197.73-10.4l10.88-1.42v-12.02l-10.88,1.52
	c0,0-2.08,0.26-5.9,0.69c-2.29,0.26-5.28,0.58-8.84,0.95c-2.97,0.31-6.38,0.65-10.18,1.01c-2.28,0.22-4.71,0.44-7.28,0.67
	c-3.42,0.31-7.09,0.63-11,0.95c-1.95,0.16-3.97,0.32-6.04,0.49c-1.04,0.08-2.09,0.26-3.15,0.34c-35.11,2.71-85.77,5.59-145.35,5.59
	c-4.56,0-10.19,0-16.73,0h-28.94V383.18z"/>
<path class="st2" d="M886.27,371.55v11.63c62.02,0,172.1,0,260.48,0v-11.63h-29.21C1035.28,371.55,941.31,371.55,886.27,371.55z"/>
<path class="st2" d="M456.01,383.18v-11.63h-28.94c-6.54,0-12.17,0-16.73,0c-115.55,0-197.73-10.6-197.73-10.6l-10.88-1.61v12.02
	l10.88,1.42c0,0,82.18,10.4,197.73,10.4C420.75,383.18,436.63,383.18,456.01,383.18z"/>
<polygon class="st2" points="546.71,297.13 546.71,273.85 546.71,266.9 531.09,266.9 456.39,266.9 440.5,266.9 440.5,273.16 
	440.5,297.13 456.39,297.13 531.09,297.13 "/>
<polygon class="st2" points="1221.57,266.9 1146.87,266.9 1131.25,266.9 1131.25,273.85 1131.25,297.13 1146.87,297.13 
	1221.57,297.13 1237.46,297.13 1237.46,273.16 1237.46,266.9 "/>
<path class="st2" d="M1600.83,129.42c0,0-277.32,53.74-616.88,53.74v7.88c241.88,0,456.3-27.32,559.37-43
	c41.49-6.31,57.52-10.74,57.52-10.74l20.95-77.67c-0.76,0.22-1.53,0.44-2.31,0.67L1600.83,129.42z"/>
<path class="st2" d="M694.01,183.16c-339.56,0-624.34-53.74-624.34-53.74L51.02,60.3c-0.78-0.22-1.55-0.45-2.31-0.67l20.94,77.67
	c0,0,23.5,4.43,64.99,10.74c103.07,15.68,317.49,43,559.37,43V183.16z"/>
<polygon class="st2" points="694.01,210.3 694.01,218.06 838.98,218.06 983.95,218.06 983.95,210.3 838.98,210.3 "/>
<path class="st0" d="M1600.83,129.42l18.65-69.13c-95.07,27.44-354.72,91.35-780.51,91.35S146.07,87.74,51,60.3l18.67,69.13
	c0,0,284.78,53.74,624.34,53.74v7.88v19.26h144.97h144.97v-19.26v-7.88"/>
<path class="st0" d="M983.95,183.16c339.56,0,616.88-53.74,616.88-53.74"/>
<path class="st2" d="M1672.75,0.21c0,0-282.32,111.21-833.77,111.21S-2.25,0.21-2.25,0.21l14.13,47.81c0,0,12.37,4.5,36.83,11.61
	c0.76,0.22,1.53,0.44,2.3,0.67c95.07,27.44,362.18,91.35,787.97,91.35s685.44-63.91,780.51-91.35c0.78-0.22,1.55-0.45,2.3-0.67
	c24.46-7.12,36.83-11.61,36.83-11.61L1672.75,0.21z"/>
<polygon class="st3" points="791.69,383.39 791.69,397.14 886.27,397.14 886.27,383.39 886.27,371.37 886.27,273.85 886.27,256.04 
	791.69,256.04 791.69,273.85 791.69,371.37 "/>
<polygon class="st0" points="805.69,366.5 805.69,376.14 872,376.14 872,366.5 872,358.07 872,289.7 872,277.22 805.69,277.22 
	805.69,289.7 805.69,358.07 "/>
<text transform="matrix(1 0 0 1 816.7061 342.3916)" class="st1 st4 st5">学</text>
<g>
	<g>
		<path class="st2" d="M562.71,477.41c11.18,0.05,16.77,0.08,27.94,0.13c9.09,0.04,15.91,2.96,20.46,9.03
			c5.21,6.95,7.26,18.4,6.82,26.78c0,24.34,0.01,48.69,0.01,73.03c0,11.69-2.27,19.94-6.82,24.45c-4.55,4.52-11.37,5.1-20.47,2.04
			c-9.32-3.14-18.64-6.28-27.95-9.42C562.71,561.45,562.71,519.43,562.71,477.41z M590.33,593.46c2.99,0.87,5.3,0.5,6.9-1.15
			c1.61-1.64,2.41-4.85,2.41-9.59c0-23.98,0-47.95-0.01-71.93c0-4.74-0.81-8.23-2.41-10.42c-1.61-2.19-3.91-3.35-6.9-3.5
			c-3.73-0.19-5.59-0.29-9.32-0.49c0,31.46,0,62.92,0,94.38C584.73,591.84,586.6,592.38,590.33,593.46z"/>
		<path class="st2" d="M636.08,620.45c-5.48-9.11-6.42-19.4-7.16-29.78c0-25.94-0.01-51.89-0.01-77.83
			c-0.46-8.62,1.87-20.23,7.15-27.34c4.77-6.43,11.64-9.88,20.63-9.88c8.98,0,15.98,3.52,20.63,10.79
			c5.77,9.01,7.28,20.46,7.16,31.08c0.01,29.18,0.02,58.36,0.02,87.54c-0.63,9.59-0.69,20.81-7.15,28.63
			c-4.67,5.66-11.65,6.81-20.63,3.74C647.73,634.31,640.88,628.44,636.08,620.45z M666.2,601.89c-0.01-29.18-0.01-58.37-0.02-87.55
			c0-10.54-3.16-15.96-9.49-16.26c-6.32-0.3-9.48,4.61-9.48,14.74c0.01,28.04,0.01,56.07,0.02,84.11c0,10.13,3.16,16.12,9.49,17.98
			C663.04,616.78,666.2,612.44,666.2,601.89z"/>
		<path class="st2" d="M692,647.02c0-9.66,0-14.48-0.01-24.14c1.77,1.16,3.77,2.06,5.99,2.71c3.66,1.07,6.38,0.51,8.15-1.72
			c1.77-2.23,2.66-6.19,2.66-11.84c-0.01-44.64-0.03-89.28-0.04-133.93c7.32,0.03,10.98,0.05,18.3,0.09
			c0.01,45.94,0.03,91.88,0.04,137.82c0.16,10.23-0.49,22.56-6.56,30.94c-4.14,5.7-11.06,6.96-20.05,3.91
			C697.15,649.73,694.33,648.45,692,647.02z"/>
		<path class="st2" d="M746.08,655.63c-5.04-11.17-7.26-24.1-7.17-36.57c-0.01-32.35-0.02-64.69-0.03-97.04
			c-0.14-11.59,1.31-24.02,7.14-34.12c4.65-8.05,11.64-12.29,20.62-12.29c8.98,0,16,4.34,20.63,13.19
			c6.12,11.69,6.66,24.82,7.17,37.86c0.01,35.58,0.03,71.16,0.04,106.74c-0.47,12.12-0.57,25.01-7.14,35.42
			c-4.56,7.22-11.75,8.99-20.63,6.14C758.3,672.26,749.62,663.5,746.08,655.63z M776.18,630.65c-0.01-35.83-0.03-71.66-0.04-107.49
			c0-12.94-3.17-19.56-9.49-19.86c-6.32-0.3-9.48,5.81-9.48,18.34c0.01,34.68,0.02,69.36,0.04,104.05c0,12.53,3.17,19.72,9.49,21.58
			C773.03,649.13,776.19,643.59,776.18,630.65z"/>
		<path class="st2" d="M833.35,478.7c7.32,0.03,10.98,0.02,18.3-0.02c0.01,29.17,0.02,58.33,0.03,87.5
			c7.85-1.11,11.78-1.66,19.63-2.76c-0.01-28.28-0.02-56.55-0.03-84.83c7.32-0.03,10.98-0.05,18.3-0.09
			c0.02,67.41,0.05,134.83,0.07,202.24c-7.32,2.48-10.97,3.72-18.29,6.2c-0.01-31.25-0.02-62.51-0.03-93.76
			c-7.85,1.48-11.78,2.22-19.63,3.7c0.01,32.24,0.03,64.47,0.04,96.71c-7.32,2.48-10.97,3.53-18.3,1.07
			C833.41,622.68,833.38,550.69,833.35,478.7z"/>
		<path class="st2" d="M903.22,478.44c16.64-0.08,33.27-0.16,49.91-0.24c0,10.34,0,15.52,0.01,25.86
			c-10.54,0.55-21.07,1.11-31.61,1.66c0.01,16.88,0.01,33.75,0.02,50.63c10.05-1.41,15.07-2.12,25.12-3.54
			c0,10.47,0,15.7,0.01,26.17c-10.05,1.89-15.07,2.84-25.11,4.74c0.01,19.61,0.01,39.23,0.02,58.84c10.53-3.07,21.07-6.13,31.6-9.2
			c0,10.34,0,15.51,0.01,25.86c-16.63,5.64-33.26,11.27-49.89,16.91C903.26,610.23,903.24,544.33,903.22,478.44z"/>
		<path class="st2" d="M963.6,478.15c10.78-0.05,16.17-0.08,26.95-0.13c9.09-0.04,15.92,3.41,20.46,10.06
			c5.88,8.6,6.19,19.25,6.83,29.2c0,6.29,0,9.43,0,15.71c0.11,10.48-1.46,21.53-6.81,30.62c-4.46,7.58-11.36,12.47-20.45,14.31
			c-3.46,0.7-5.19,1.05-8.65,1.75c0.01,23.26,0.01,46.52,0.02,69.78c-7.32,2.48-10.98,3.72-18.29,6.2
			C963.63,596.49,963.61,537.32,963.6,478.15z M990.57,553.85c2.99-0.46,5.24-2.01,6.74-4.61c1.5-2.6,2.24-6.72,2.24-12.39
			c0-7.85,0-11.78,0-19.63c0-5.67-0.75-9.64-2.25-11.92c-1.5-2.28-3.74-3.37-6.74-3.21c-3.46,0.18-5.19,0.27-8.65,0.45
			c0,17.55,0.01,35.1,0.01,52.64C985.38,554.66,987.11,554.39,990.57,553.85z"/>
		<path class="st2" d="M1027.81,477.84c7.32-0.03,10.98-0.05,18.3-0.09c0.01,49.98,0.01,99.97,0.02,149.95
			c-7.32,2.48-10.98,3.72-18.29,6.2C1027.82,581.88,1027.82,529.86,1027.81,477.84z"/>
		<path class="st2" d="M1073.88,477.62c9.91-0.05,14.87-0.07,24.78-0.12c6.06,42.03,12.35,84.02,18.96,125.96
			c-7.32,2.48-10.97,3.72-18.29,6.2c-1.33-10.05-2-15.11-3.33-25.34c0,0.15,0,0.23,0,0.38c-8.31,2.27-12.47,3.41-20.79,5.69
			c-1.12,9.52-2.22,19.05-3.32,28.57c-6.78,2.3-10.18,3.45-16.96,5.75C1061.02,575.66,1067.31,526.62,1073.88,477.62z
			 M1093.85,567.12c-2.76-21.9-5.48-43.81-8.15-65.72c-0.13,0.01-0.2,0.01-0.33,0.02c-2.7,23.15-5.36,46.3-7.98,69.46
			C1083.97,569.37,1087.26,568.62,1093.85,567.12z"/>
	</g>
</g>
<polygon class="st0" points="1221.95,569.02 1221.95,447.17 1221.95,383.39 1221.95,371.37 1221.95,361.45 1221.95,348.02 
	1221.95,337.11 1221.95,297.13 1146.75,297.13 1146.75,337.11 1146.75,348.02 1146.75,361.45 1146.75,371.37 1146.75,383.39 
	1146.75,447.17 1146.75,593.36 "/>
<polygon class="st0" points="531.21,593.35 531.21,447.17 531.21,383.39 531.21,371.37 531.21,361.45 531.21,348.02 531.21,337.11 
	531.21,297.13 456.01,297.13 456.01,337.11 456.01,348.02 456.01,361.45 456.01,371.37 456.01,383.39 456.01,447.17 456.01,569 "/>
</svg>
